<svg fill="none" height="16" viewBox="0 0 40 16" width="40" xmlns="http://www.w3.org/2000/svg"><g fill="#fff"><path d="m7.28106 13.508c.73819-.1254 1.28875-.4252 1.65122-.8989.36247-.4738.55055-.9824.56468-1.5259v-.0839c-.01413-.5434-.21987-1.05559-.61678-1.53639-.39735-.48035-.98587-.78366-1.76645-.90905h-5.10022v4.95414zm-.98234-6.91882c.02738 0 .0521.00353.07285.0106.02119.00706.04503.01015.07329.01015h.12539c.65518 0 1.17086-.23664 1.54702-.71081.37616-.47329.56424-.99603.56424-1.56778v-.16733c-.04195-.58498-.30332-1.12494-.78411-1.61986-.48035-.49449-1.23665-.74173-2.26755-.74173h-3.61634v4.78676zm-6.2498919-6.417221h6.8980219c.98896.083444 1.84989.45298 2.58101 1.107731.73204.65518 1.13954 1.43532 1.22294 2.34084.0278.11214.0451.21986.0526.32406.0066.10463.0101.2128.0101.32406 0 .73907-.1881 1.3766-.5642 1.91258-.37618.53687-.81548.94438-1.31702 1.22296.73863.25078 1.33422.63753 1.78722 1.16027.4525.52229.6794 1.23664.6794 2.14264.0137.0975.0208.188.0208.2715v.2508c.0137 1.1011-.317 2.0106-.9929 2.728-.67598.7179-1.41814 1.181-2.22609 1.3898-.15364.042-.3064.0733-.4596.0941-.15364.0212-.30685.0313-.46005.0313h-7.2322319z"/><path d="m21.5997 9.22274-2.132-6.41723-2.4874 6.41723zm-3.449-9.050781h2.4667l5.581 15.300641h-2.2993l-1.6513-4.4521h-5.7483l-1.4843 4.4521h-2.2994z"/><path d="m29.3336 10.5397c0 1.2407.4141 2.1568 1.2437 2.7488.8287.5925 1.7452.9091 2.7483.951h.1674c.8918 0 1.7103-.2053 2.456-.6168.7453-.4106 1.174-.9995 1.2857-1.766.0137-.0556.0207-.1077.0207-.1571v-.1568c0-.9752-.407-1.63353-1.2225-1.97525-.8154-.34128-1.7452-.61633-2.7903-.8256-.1258-.02782-.2441-.0521-.3558-.07285-.1117-.0212-.223-.04504-.3342-.07329-1.2407-.26446-2.3656-.68256-3.3758-1.25431-1.0106-.5713-1.4529-1.69978-1.3275-3.38631.0838-1.07285.5783-1.99912 1.4843-2.7797.9055-.780571 2.2225-1.17085896 3.9505-1.17085896 1.7276 0 3.1109.39735096 4.1493 1.19160896 1.0379.79426 1.5152 1.93025 1.4318 3.40707h-1.9647v-.23002c0-.86358-.366-1.52583-1.0976-1.98543-.7316-.46005-1.5364-.70376-2.4141-.73201h-.1254c-.8503 0-1.6274.2128-2.3307.63752-.7042.42561-1.0764 1.09051-1.1183 1.99647.1112.73864.5329 1.25784 1.2644 1.55718.7316.29978 1.5784.55364 2.54.76291.1669.04195.3413.08389.5223.12539.181.04194.362.08389.5435.12539 1.1289.2649 2.177.66578 3.1461 1.20221.9682.53642 1.536 1.47373 1.7033 2.81108.0835 1.6587-.5156 2.9196-1.7978 3.7836-1.2821.864-2.7033 1.3095-4.264 1.3378h-.0627c-1.5329 0-2.9368-.4429-4.2119-1.3272-1.2751-.8847-1.8918-2.2609-1.8499-4.1285z"/></g></svg>