<svg fill="none" height="18" viewBox="0 0 41 18" width="41" xmlns="http://www.w3.org/2000/svg" xmlns:xlink="http://www.w3.org/1999/xlink"><clipPath id="a"><path d="m0 .5h40.7315v17h-40.7315z"/></clipPath><g clip-path="url(#a)" fill="#fff"><path d="m2.20344 7.57435 3.82453.00998c1.12573.00285 1.95434-.19824 2.48582-.60375.53102-.40503.79819-1.04016.80056-1.90442.00191-.81339-.251-1.41714-.75825-1.81077-.50771-.39362-1.28783-.59186-2.3413-.59424l-3.99852-.01045zm-.01949 7.36575 4.424.0119c1.11146.0023 1.95433-.2401 2.52956-.7293.57522-.4887.86429-1.2018.86659-2.1388.0024-.9299-.28852-1.613-.87182-2.0508-.58378-.43739-1.50367-.65749-2.76013-.66082l-4.17346-.01094zm-2.18395 1.9339.0418346-16.049743 6.4719854.016639c1.6634.004753 2.91035.334674 3.74038.990244.83.65651 1.2432 1.63439 1.2398 2.93459-.0019.83526-.1968 1.54502-.5828 2.12881-.387.58378-.96172 1.03065-1.7252 1.34108.9655.18397 1.7162.61658 2.2519 1.29687.5358.68071.8025 1.54031.7996 2.57901-.0038 1.4675-.4934 2.6322-1.4689 3.4941-.976.8619-2.29902 1.2902-3.96955 1.286z"/><path d="m17.6466 10.2518 5.0011.0128-2.4658-7.08858zm-4.6593 6.6559 6.0023-16.034005 2.4079.006656 5.94 16.064949-2.3646-.0062-1.6872-4.7986-6.3198-.0167-1.7229 4.7901z"/><path d="m28.2666 11.6632 2.1027.0057c.019 1.1623.4031 2.0893 1.1533 2.7815.7501.6917 1.7532 1.0397 3.0101 1.043 1.2422.0029 2.2215-.2557 2.9384-.7772.7169-.5211 1.0763-1.2318 1.0787-2.1327.0033-1.2274-1.3382-2.1644-4.0237-2.81047-.1602-.03708-.2833-.06655-.3703-.08842-2.1778-.52103-3.6168-1.10053-4.3161-1.73803-.6993-.63751-1.0473-1.54123-1.044-2.71069.0038-1.43093.5296-2.579 1.5778-3.44421 1.0483-.865217 2.4402-1.295922 4.1764-1.291168 1.7722.004754 3.1656.463982 4.1806 1.378158 1.0144.91418 1.5269 2.16684 1.5374 3.75798l-2.0813.00523c-.0699-1.07487-.4326-1.90062-1.0886-2.47632-.6556-.57523-1.5541-.86474-2.6941-.86759-1.0682-.00285-1.9225.22914-2.5624.69597-.6408.46684-.9617 1.08913-.964 1.86592-.0034 1.24219 1.3163 2.17206 3.959 2.78912.3922.09555.6931.16924.9037.22011.0438.0076.1198.02614.2287.05514 1.7276.41882 2.8742.86807 3.4395 1.34916.4278.36463.7535.80671.9774 1.32631.2234.5201.3346 1.0996.3327 1.739-.0038 1.5469-.5609 2.7768-1.671 3.6895-1.11.9123-2.6099 1.3658-4.4981 1.3611-1.9467-.0052-3.4618-.5011-4.5452-1.4885-1.0835-.9869-1.6625-2.3993-1.7376-4.2376z"/></g></svg>