<svg clip-rule="evenodd" fill-rule="evenodd" stroke-linejoin="round" stroke-miterlimit="2" viewBox="0 0 346 145" xmlns="http://www.w3.org/2000/svg"><g fill="#fff" fill-rule="nonzero"><path d="m0 .416v15.373h9.964c2.835 0 5.07-.701 6.704-2.103 1.633-1.403 2.45-3.36 2.45-5.873 0-2.219-.824-4.006-2.473-5.363-1.65-1.356-3.876-2.034-6.681-2.034zm0-1.249h8.507c2.913-.045 5.113-.67 6.6-1.872 1.488-1.202 2.231-2.997 2.231-5.386 0-2.405-.82-4.219-2.462-5.445-1.642-1.225-4.064-1.837-7.271-1.837h-7.605zm-1.248 17.871v-33.66h8.853c3.484 0 6.188.717 8.115 2.15 1.926 1.433 2.889 3.592 2.889 6.473 0 1.881-.458 3.483-1.375 4.809-.917 1.325-2.215 2.211-3.895 2.658l-.024.139c1.989.262 3.661 1.175 5.017 2.739 1.356 1.565 2.034 3.372 2.034 5.422 0 2.943-.951 5.224-2.854 6.842-1.904 1.619-4.42 2.428-7.548 2.428z" transform="matrix(4.16667 0 0 4.16667 5.20135673 71.28244046)"/><path d="m0 11.049h15.512l-7.051-18.841-.648-1.965h-.138l-.624 1.965zm15.974 1.249h-16.437l-3.767 10.056h-1.365l12.576-33.659h1.526l12.599 33.659h-1.364z" transform="matrix(4.16667 0 0 4.16667 136.45146173 49.13242274)"/><path d="m0 17.8c0-1.926-.79-3.479-2.37-4.658s-4.274-2.393-8.079-3.641c-3.792-1.156-6.585-2.382-8.381-3.676-1.795-1.295-2.693-3.213-2.693-5.756 0-2.528 1.052-4.574 3.156-6.138 2.103-1.564 4.773-2.346 8.01-2.346 3.36 0 6.06.863 8.102 2.589s3.032 4.138 2.971 7.235l-.046.139h-1.064c0-2.512-.924-4.592-2.774-6.242-1.849-1.649-4.246-2.473-7.189-2.473-3.037 0-5.449.713-7.236 2.138-1.788 1.426-2.681 3.11-2.681 5.052s.719 3.517 2.161 4.727c1.441 1.21 4.127 2.393 8.056 3.549 3.823 1.202 6.665 2.45 8.531 3.745 1.864 1.294 2.797 3.198 2.797 5.71 0 2.558-1.102 4.608-3.306 6.149s-4.924 2.312-8.16 2.312c-3.375 0-6.281-.79-8.716-2.37s-3.614-4.065-3.536-7.455l.046-.139h1.04c0 3.051 1.125 5.267 3.375 6.646 2.25 1.38 4.846 2.07 7.791 2.07 2.943 0 5.379-.683 7.304-2.046 1.927-1.365 2.891-3.071 2.891-5.121" transform="matrix(4.16667 0 0 4.16667 340.42662491 35.06574482)"/></g></svg>